<?xml version="1.0" standalone="no"?>
<!DOCTYPE svg PUBLIC "-//W3C//DTD SVG 20010904//EN"
 "http://www.w3.org/TR/2001/REC-SVG-20010904/DTD/svg10.dtd">
<svg version="1.0" xmlns="http://www.w3.org/2000/svg"
 width="792.000000pt" height="792.000000pt" viewBox="0 0 792.000000 792.000000"
 preserveAspectRatio="xMidYMid meet">
<metadata>
Created by potrace 1.11, written by Peter Selinger 2001-2013
</metadata>
<g transform="translate(0.000000,792.000000) scale(0.100000,-0.100000)"
fill="#000000" stroke="none">
<path d="M3728 7915 c-2 -2 -42 -6 -89 -10 -48 -3 -95 -7 -105 -9 -11 -2 -44
-7 -74 -11 -30 -4 -62 -9 -70 -10 -8 -1 -49 -9 -90 -16 -80 -14 -89 -15 -92
-18 -2 -2 -14 -4 -28 -6 -14 -2 -54 -11 -90 -20 -36 -10 -72 -19 -80 -20 -8
-2 -15 -4 -15 -6 0 -1 -9 -3 -20 -4 -18 -2 -248 -76 -285 -92 -8 -3 -19 -7
-25 -9 -5 -1 -41 -16 -80 -32 -74 -32 -141 -59 -153 -64 -48 -17 -289 -148
-422 -230 -124 -77 -131 -81 -149 -95 -137 -101 -269 -201 -282 -213 -8 -8
-49 -44 -90 -80 -97 -84 -309 -300 -366 -372 -25 -32 -49 -58 -54 -58 -4 0
-10 -8 -14 -17 -3 -10 -23 -38 -45 -63 -22 -24 -40 -48 -40 -52 0 -4 -9 -15
-19 -25 -10 -10 -62 -83 -115 -163 -53 -80 -100 -150 -106 -156 -5 -7 -7 -14
-5 -16 2 -2 -7 -17 -20 -32 -14 -16 -25 -37 -25 -47 0 -9 -4 -19 -8 -21 -13
-5 -142 -255 -135 -262 4 -3 1 -6 -5 -6 -7 0 -12 -9 -12 -20 0 -11 -4 -20 -10
-20 -5 0 -10 -7 -10 -15 0 -9 -9 -34 -20 -55 -23 -45 -125 -320 -136 -365 -4
-16 -11 -36 -17 -42 -5 -7 -7 -13 -4 -13 3 0 -6 -34 -18 -75 -13 -41 -21 -75
-19 -75 3 0 0 -8 -5 -18 -6 -11 -12 -30 -15 -43 -3 -13 -12 -55 -20 -94 -8
-38 -17 -81 -20 -95 -17 -89 -24 -127 -24 -140 0 -8 -2 -24 -5 -35 -2 -11 -8
-46 -12 -79 -3 -32 -8 -68 -11 -80 -15 -85 -29 -708 -16 -730 2 -5 6 -41 8
-81 2 -39 5 -85 8 -101 3 -16 8 -58 12 -94 3 -36 8 -69 11 -73 2 -4 6 -24 9
-45 2 -20 7 -48 10 -62 3 -14 7 -37 9 -52 2 -15 8 -44 14 -65 5 -21 12 -51 15
-68 8 -48 30 -131 61 -234 9 -30 18 -62 20 -70 4 -19 72 -217 84 -246 5 -11
16 -36 25 -57 9 -20 16 -38 16 -41 0 -7 59 -135 113 -247 77 -158 205 -373
314 -524 26 -37 53 -77 60 -88 6 -11 15 -23 20 -27 5 -3 22 -24 39 -46 16 -22
34 -45 39 -51 6 -7 24 -28 40 -49 114 -139 300 -325 490 -490 56 -49 265 -205
274 -205 5 0 11 -3 13 -7 4 -11 97 -73 107 -73 5 0 11 -3 13 -8 10 -24 477
-272 513 -272 8 0 15 -4 15 -10 0 -5 8 -10 18 -10 10 0 22 -4 27 -8 6 -4 28
-14 50 -21 22 -8 58 -21 80 -31 46 -20 297 -99 317 -100 4 -1 26 -7 48 -15 22
-8 43 -14 45 -14 3 0 31 -5 63 -12 31 -7 66 -13 77 -15 11 -1 20 -3 20 -4 0
-2 23 -6 77 -15 24 -3 54 -8 68 -10 14 -3 50 -7 80 -10 30 -4 62 -9 70 -11 75
-25 715 -24 833 1 12 2 47 7 77 10 64 6 89 10 190 30 41 9 84 17 95 19 83 16
261 65 370 102 71 24 137 46 145 48 16 5 64 24 128 53 20 9 39 17 42 18 27 9
81 35 179 84 157 79 185 93 191 100 3 3 25 17 50 30 25 13 52 30 61 37 8 8 18
14 21 14 3 0 41 24 85 53 70 46 98 66 148 104 6 5 28 21 50 37 234 172 576
514 737 737 17 24 23 31 78 103 16 21 30 42 30 45 0 4 8 16 18 27 9 11 22 29
29 40 6 10 33 53 59 94 62 99 146 247 163 288 7 17 18 32 24 32 6 0 8 3 5 6
-4 3 14 46 38 95 24 49 44 91 44 94 0 2 11 29 25 59 14 30 25 61 25 68 0 8 4
18 8 23 9 11 65 160 69 185 1 8 6 23 12 35 16 34 86 284 96 345 3 19 9 44 12
55 3 11 8 29 10 40 1 11 12 68 22 126 44 241 56 392 56 699 0 212 -6 350 -19
435 -2 17 -7 61 -11 100 -4 38 -8 72 -10 75 -1 3 -6 27 -9 53 -6 42 -18 106
-32 172 -2 11 -6 31 -9 45 -35 175 -148 535 -218 692 -8 18 -30 67 -48 108
-110 247 -271 518 -446 751 -62 82 -127 166 -146 186 -19 21 -60 67 -93 103
-58 65 -207 214 -281 281 -49 45 -249 205 -298 239 -20 14 -42 30 -48 35 -34
29 -226 150 -327 207 -107 59 -323 168 -335 168 -3 0 -24 9 -48 20 -145 67
-474 172 -638 204 -13 2 -58 11 -99 19 -41 9 -93 18 -115 21 -22 3 -50 8 -63
10 -13 3 -51 8 -85 11 -34 4 -82 9 -107 12 -52 5 -557 13 -562 8z m547 -529
c28 -3 66 -9 85 -12 19 -3 49 -7 65 -9 42 -5 176 -28 223 -40 34 -8 65 -15 87
-19 11 -2 31 -9 45 -14 14 -5 27 -10 30 -10 3 0 25 -6 50 -13 25 -7 50 -13 55
-14 6 -1 19 -5 30 -9 11 -4 52 -19 90 -33 204 -73 458 -196 618 -299 37 -24
72 -44 76 -44 5 0 11 -3 13 -7 2 -5 32 -28 68 -52 36 -25 67 -47 70 -50 3 -4
32 -26 64 -51 81 -61 266 -229 337 -305 16 -17 47 -51 71 -76 24 -25 63 -69
88 -99 25 -29 51 -59 58 -66 6 -7 12 -15 12 -19 0 -3 13 -20 30 -38 16 -18 30
-37 30 -44 0 -6 4 -13 8 -15 13 -5 150 -209 207 -308 63 -110 195 -376 195
-393 0 -3 10 -26 22 -53 12 -27 23 -53 24 -59 1 -5 21 -62 43 -125 39 -114 68
-207 76 -249 2 -13 7 -31 10 -41 6 -17 9 -30 20 -82 18 -87 23 -111 30 -153 3
-16 7 -41 10 -55 5 -27 15 -104 21 -160 30 -276 24 -687 -12 -910 -4 -25 -8
-54 -9 -65 -2 -19 -8 -54 -20 -115 -3 -14 -7 -36 -10 -50 -37 -196 -139 -514
-232 -720 -46 -104 -157 -317 -192 -370 -9 -14 -23 -37 -31 -53 -7 -15 -17
-27 -22 -27 -4 0 -8 -5 -8 -11 0 -9 -96 -156 -111 -169 -3 -3 -25 -32 -50 -65
-24 -33 -46 -62 -49 -65 -3 -3 -32 -36 -65 -75 -127 -148 -254 -275 -385 -385
-23 -19 -51 -43 -63 -53 -36 -31 -69 -55 -142 -107 -38 -27 -75 -54 -81 -59
-6 -5 -69 -44 -140 -86 -71 -42 -136 -80 -144 -85 -8 -5 -35 -19 -60 -30 -25
-11 -53 -25 -62 -30 -46 -25 -56 -30 -93 -46 -22 -9 -53 -22 -70 -30 -55 -24
-169 -66 -235 -86 -36 -11 -72 -22 -80 -25 -8 -3 -19 -7 -25 -8 -5 -2 -48 -13
-95 -25 -89 -23 -106 -27 -155 -35 -16 -3 -37 -8 -45 -10 -8 -2 -33 -6 -55
-10 -22 -3 -53 -8 -70 -11 -187 -34 -643 -39 -850 -9 -16 2 -48 6 -70 9 -72
10 -109 16 -155 27 -50 11 -83 18 -120 25 -50 10 -235 65 -252 74 -10 6 -24
10 -31 10 -12 0 -126 42 -212 78 -132 55 -435 215 -443 235 -2 4 -8 7 -14 7
-20 0 -288 191 -373 265 -143 126 -267 246 -350 340 -23 26 -213 262 -233 290
-13 19 -107 160 -119 180 -96 159 -199 355 -247 475 -15 36 -31 74 -36 85 -14
34 -60 160 -60 167 0 4 -5 19 -12 35 -7 15 -13 33 -13 38 -1 6 -5 17 -8 25 -7
18 -66 240 -72 273 -3 12 -9 42 -14 67 -6 25 -13 61 -15 80 -3 19 -8 46 -11
60 -3 14 -7 48 -10 75 -3 28 -8 57 -10 65 -11 43 -20 240 -20 440 1 205 4 278
21 425 7 54 39 254 49 295 3 14 7 34 9 45 9 47 57 232 65 250 4 11 21 61 36
110 16 50 32 96 38 103 5 6 6 12 3 12 -4 0 -1 10 6 23 7 12 13 24 13 27 1 3 9
22 18 44 9 21 17 41 17 43 0 3 13 32 29 66 15 34 29 65 30 69 8 34 180 337
255 448 44 66 171 236 186 250 3 3 17 21 32 40 68 90 280 304 418 421 143 122
493 359 530 359 4 0 10 5 12 11 2 5 11 11 20 12 9 2 22 8 29 13 25 19 99 54
99 46 0 -4 4 -2 8 4 9 13 322 144 345 143 1 0 29 10 62 21 33 11 87 28 120 36
33 9 67 18 75 20 49 14 244 52 291 57 29 4 64 9 77 11 12 3 61 8 110 11 48 4
88 8 90 10 5 5 456 -3 507 -9z"/>
<path d="M5129 6394 c-97 -15 -170 -36 -256 -75 -59 -26 -158 -83 -173 -99 -3
-3 -23 -19 -45 -35 -92 -69 -196 -197 -255 -315 -51 -102 -52 -106 -205 -520
-64 -173 -120 -324 -125 -335 -11 -26 -23 -59 -24 -65 -1 -3 -12 -33 -25 -67
-15 -41 -28 -62 -39 -61 -10 0 -143 -1 -297 -1 -249 -1 -442 3 -631 13 -33 1
-82 -3 -109 -9 -26 -7 -65 -11 -86 -9 -32 3 -39 1 -40 -14 -1 -34 -8 -54 -22
-70 -67 -77 -83 -211 -34 -294 15 -26 27 -58 27 -72 0 -22 5 -26 29 -26 16 0
44 -6 62 -14 66 -28 197 -36 609 -41 183 -2 296 -7 298 -13 1 -5 -17 -63 -42
-128 -24 -66 -76 -203 -115 -307 -83 -219 -86 -226 -109 -225 -22 1 -170 -11
-214 -17 -18 -2 -60 -7 -93 -10 -33 -3 -71 -7 -85 -9 -14 -2 -50 -6 -80 -10
-47 -6 -134 -21 -240 -40 -14 -2 -45 -9 -70 -15 -25 -5 -57 -12 -71 -14 -110
-20 -318 -93 -422 -147 -299 -158 -488 -447 -523 -801 -6 -61 -8 -108 -5 -119
1 -3 3 -32 5 -65 2 -33 6 -76 10 -95 4 -19 9 -44 11 -55 2 -11 4 -20 5 -20 1
0 3 -7 5 -15 15 -70 67 -189 112 -256 134 -200 375 -353 613 -390 19 -3 54 -9
77 -14 47 -8 188 -6 248 5 89 15 205 47 205 57 0 4 7 8 17 8 24 0 159 76 223
125 86 67 162 145 217 226 34 49 102 182 122 239 7 19 17 44 21 55 17 45 40
104 68 180 16 44 47 125 67 180 21 55 51 136 66 180 16 44 32 87 35 95 4 8 8
20 10 25 5 22 73 197 77 202 8 7 567 5 752 -3 200 -9 265 -8 311 5 18 5 51 7
74 4 37 -5 40 -4 41 18 2 43 4 47 24 71 33 38 57 102 60 160 3 56 -17 131 -41
155 -8 8 -14 28 -14 44 0 26 -3 29 -31 29 -17 0 -39 5 -50 11 -11 6 -29 12
-40 15 -10 2 -27 6 -37 8 -45 10 -588 30 -687 25 -108 -5 -148 -3 -152 7 -2 7
9 47 26 90 17 44 31 82 31 85 0 4 7 23 15 43 8 20 16 39 17 43 1 5 14 38 29
76 15 37 25 67 22 67 -3 0 -1 6 4 13 6 6 29 64 52 128 l43 115 46 3 c26 2 67
4 92 6 25 1 74 6 110 10 36 4 76 9 90 10 123 14 233 30 405 60 188 32 493 126
516 158 3 5 9 8 13 7 4 -1 40 17 79 40 145 86 273 220 349 364 23 45 43 83 44
86 0 3 4 12 7 20 18 40 48 139 53 170 3 19 9 52 14 73 9 44 6 294 -4 347 -4
19 -12 53 -18 75 -7 22 -12 42 -12 45 -2 7 -26 69 -49 119 -45 102 -166 249
-257 311 -19 13 -37 27 -40 30 -3 3 -14 10 -25 16 -11 6 -40 22 -65 36 -166
91 -408 133 -601 102z m266 -547 c121 -39 210 -129 246 -249 23 -75 32 -204
16 -225 -5 -7 -7 -13 -4 -13 11 0 -25 -106 -54 -156 -42 -75 -112 -140 -193
-179 -80 -39 -131 -54 -341 -101 -129 -29 -475 -73 -475 -61 0 7 151 412 165
442 7 17 17 43 21 59 4 16 13 41 20 55 8 14 14 33 14 42 0 8 7 24 15 35 8 10
15 29 15 42 0 12 5 22 12 22 6 0 8 3 5 6 -12 12 63 139 109 187 46 46 132 97
165 97 10 0 20 4 23 9 9 14 187 5 241 -12z m-2055 -2791 c0 -2 -16 -46 -36
-98 -19 -51 -45 -120 -56 -153 -11 -33 -24 -64 -28 -70 -4 -5 -11 -23 -15 -40
-10 -38 -9 -34 -24 -70 -16 -38 -72 -187 -75 -200 -17 -67 -96 -212 -139 -255
-42 -42 -130 -95 -180 -107 -45 -10 -156 -11 -203 -1 -135 29 -264 134 -290
236 -2 10 -10 42 -17 72 -54 220 73 464 283 544 25 9 50 17 55 17 6 1 17 5 26
10 18 9 18 9 203 49 138 29 240 46 346 57 30 3 56 6 58 7 4 5 92 6 92 2z"/>
</g>
</svg>
